<?xml version="1.0" standalone="no"?>
<!DOCTYPE svg PUBLIC "-//W3C//DTD SVG 20010904//EN"
 "http://www.w3.org/TR/2001/REC-SVG-20010904/DTD/svg10.dtd">
<svg version="1.0" xmlns="http://www.w3.org/2000/svg"
 width="1088.000000pt" height="1088.000000pt" viewBox="0 0 1088.000000 1088.000000"
 preserveAspectRatio="xMidYMid meet">
<metadata>
Created by potrace 1.14, written by Peter Selinger 2001-2017
</metadata>
<g transform="translate(0.000000,1088.000000) scale(0.100000,-0.100000)"
fill="#000000" stroke="none">
<path d="M4888 8875 c-1 -1 -43 -6 -93 -9 -49 -4 -101 -8 -115 -10 -14 -2 -48
-7 -75 -10 -119 -16 -241 -36 -310 -50 -11 -2 -56 -12 -100 -21 -44 -9 -87
-19 -95 -22 -8 -3 -22 -7 -30 -7 -8 -1 -19 -4 -25 -7 -5 -4 -26 -10 -45 -15
-19 -4 -41 -9 -47 -11 -7 -2 -19 -4 -25 -6 -7 -1 -17 -5 -23 -9 -5 -3 -26 -9
-45 -13 -19 -4 -41 -11 -50 -16 -8 -4 -40 -15 -70 -24 -30 -9 -64 -20 -75 -25
-11 -5 -54 -22 -97 -39 -42 -16 -98 -39 -124 -52 -27 -12 -53 -22 -59 -24 -14
-3 -169 -78 -175 -84 -3 -4 -39 -23 -80 -43 -86 -44 -173 -91 -180 -98 -3 -3
-50 -33 -105 -67 -55 -35 -109 -70 -120 -79 -11 -9 -30 -21 -42 -27 -13 -5
-23 -14 -23 -19 0 -4 -6 -8 -14 -8 -8 0 -16 -4 -18 -8 -1 -4 -25 -25 -53 -45
-69 -51 -107 -80 -119 -92 -6 -6 -36 -30 -66 -55 -177 -144 -391 -369 -535
-560 -27 -36 -52 -67 -55 -70 -3 -3 -11 -14 -17 -25 -7 -11 -44 -70 -83 -131
-38 -61 -70 -115 -70 -121 0 -6 -4 -13 -9 -15 -11 -4 -151 -292 -151 -310 0
-8 -4 -18 -9 -24 -10 -10 -105 -289 -117 -344 -10 -47 -11 -50 -14 -52 -3 -5
-17 -66 -26 -113 -3 -16 -9 -48 -14 -70 -14 -62 -22 -122 -35 -250 -10 -96
-13 -113 -20 -124 -3 -6 -2 -11 3 -11 5 0 6 -16 3 -37 -17 -90 -1 -561 23
-725 10 -64 17 -111 22 -153 11 -80 59 -314 71 -345 3 -8 8 -26 10 -40 6 -32
103 -322 113 -335 4 -5 11 -21 15 -35 4 -14 23 -58 41 -98 19 -41 34 -78 34
-83 0 -5 5 -9 10 -9 6 0 10 -9 10 -20 0 -11 4 -20 8 -20 4 0 13 -12 20 -27 6
-16 20 -42 31 -60 11 -17 24 -48 30 -70 l10 -38 -20 25 c-11 14 -29 35 -40 48
-10 12 -17 22 -14 22 2 0 -12 17 -30 38 -19 20 -35 40 -35 43 0 3 -8 15 -17
27 -10 11 -28 33 -40 49 -12 15 -45 57 -74 93 l-51 65 6 -85 c6 -89 6 -91 32
-209 43 -198 145 -383 284 -515 39 -36 72 -66 75 -66 3 0 18 -9 33 -20 15 -11
61 -35 104 -53 47 -21 74 -38 70 -45 -7 -10 -80 -17 -317 -28 -60 -2 -141 -7
-180 -9 -38 -2 -115 -7 -170 -10 -55 -3 -120 -8 -145 -10 -25 -2 -83 -7 -128
-9 -46 -3 -114 -8 -150 -12 -100 -9 -141 -13 -204 -19 -31 -2 -76 -7 -100 -11
-24 -3 -56 -7 -73 -8 -174 -17 -455 -71 -455 -88 0 -4 -9 -8 -19 -8 -17 0 -40
-36 -29 -44 50 -37 79 -55 108 -65 40 -15 64 -24 100 -38 29 -12 155 -53 179
-58 9 -3 43 -12 76 -21 33 -9 67 -18 75 -20 8 -2 44 -11 80 -19 73 -18 96 -24
125 -30 11 -3 29 -7 40 -9 126 -29 265 -59 335 -72 14 -2 48 -9 75 -14 28 -5
62 -12 78 -15 15 -3 37 -7 50 -10 81 -16 85 -17 172 -30 28 -4 59 -9 70 -12
11 -2 31 -6 45 -8 14 -2 54 -9 90 -15 36 -6 81 -13 100 -15 19 -2 64 -9 100
-15 36 -6 79 -12 95 -14 40 -5 125 -18 150 -22 11 -2 45 -6 75 -9 30 -3 65 -8
78 -11 12 -2 44 -7 70 -9 26 -3 65 -8 87 -11 22 -4 59 -8 83 -10 24 -1 55 -5
70 -8 15 -3 56 -8 91 -12 35 -3 82 -8 105 -10 23 -3 63 -7 90 -9 27 -2 65 -7
85 -10 20 -3 68 -8 106 -10 39 -3 86 -7 105 -10 38 -5 146 -15 225 -20 28 -2
82 -6 120 -9 168 -14 331 -25 435 -31 47 -2 119 -7 160 -9 84 -6 236 -13 505
-23 232 -9 1374 -9 1615 0 183 7 334 14 480 23 41 2 120 6 175 9 94 5 169 10
310 21 33 2 96 7 140 10 44 3 96 7 115 9 19 2 73 6 120 10 47 3 99 8 115 10
17 2 62 7 100 10 39 4 84 8 100 10 17 2 59 7 95 10 36 3 81 8 100 10 19 3 58
7 85 10 28 3 76 9 107 13 32 5 69 8 83 7 14 0 25 2 25 5 0 3 10 5 23 6 30 1
146 13 177 19 14 3 44 7 65 9 22 3 58 7 80 11 22 3 54 8 70 10 17 2 32 4 35 5
3 2 8 2 12 1 4 0 30 4 57 9 28 5 69 12 93 15 68 9 110 15 148 22 19 3 45 6 58
7 12 1 22 5 22 9 0 5 3 6 8 4 8 -5 69 4 187 27 29 5 108 19 125 21 8 1 33 6
55 10 22 4 47 9 55 10 8 2 26 6 40 9 14 3 37 8 53 11 15 3 37 7 50 10 12 2 33
6 47 9 72 13 315 68 385 86 44 12 91 24 105 26 14 3 45 11 70 19 25 8 79 24
120 36 191 55 340 124 340 157 0 21 -83 62 -135 67 -5 1 -19 4 -30 8 -11 4
-38 9 -60 12 -22 3 -51 8 -65 11 -43 8 -73 13 -125 19 -52 7 -70 9 -170 19
-33 4 -71 8 -85 11 -14 2 -61 6 -105 10 -44 3 -98 8 -120 10 -22 3 -78 8 -125
11 -47 3 -107 7 -135 9 -48 4 -117 8 -320 20 -49 3 -128 8 -174 10 -84 4 -105
10 -84 23 16 11 95 136 151 242 64 120 148 324 177 430 1 3 10 32 20 65 10 33
20 65 21 70 3 12 22 92 30 120 3 11 7 31 10 45 2 14 11 59 19 100 20 105 26
146 40 265 3 33 9 75 11 93 13 82 21 389 12 424 -3 15 -2 30 3 34 5 3 7 9 4
14 -3 5 -8 51 -11 102 -3 51 -7 107 -9 123 -2 17 -7 50 -10 75 -3 25 -8 59 -9
75 -2 17 -6 41 -10 55 -3 14 -8 41 -11 60 -8 52 -21 117 -40 190 -9 36 -18 72
-20 80 -2 8 -8 29 -14 47 -5 17 -7 34 -3 37 3 3 1 6 -5 6 -6 0 -13 12 -16 28
-7 36 -12 52 -25 85 -7 16 -12 34 -12 41 0 7 -3 16 -7 20 -5 4 -8 11 -8 14 -1
47 -251 568 -277 580 -5 2 -8 8 -8 13 0 5 -22 45 -50 89 -27 44 -50 84 -50 90
0 5 -4 10 -8 10 -5 0 -24 24 -42 53 -65 100 -236 322 -325 421 -240 268 -470
488 -715 684 -36 29 -72 58 -80 65 -8 6 -32 25 -55 41 -22 16 -46 36 -53 43
-7 7 -17 13 -22 13 -5 0 -17 8 -27 18 -24 24 -151 112 -163 112 -4 0 -10 4
-12 8 -11 27 -566 332 -605 332 -7 0 -13 5 -13 10 0 6 -7 10 -15 10 -8 0 -23
4 -33 9 -17 9 -108 46 -147 61 -11 4 -38 15 -60 23 -50 20 -155 57 -175 62 -8
2 -15 4 -15 5 0 1 -7 3 -15 5 -8 2 -62 18 -120 35 -132 38 -332 85 -414 96
-22 3 -43 7 -47 9 -3 3 -28 7 -55 10 -27 3 -61 8 -76 10 -62 11 -86 14 -153
21 -38 3 -86 9 -105 11 -41 5 -607 13 -612 8z"/>
</g>
</svg>
